<svg width="356" height="476" viewBox="0 0 356 476" fill="none" xmlns="http://www.w3.org/2000/svg">
<path d="M142.284 2.82995C133.998 6.15783 117.766 16.2094 112.672 21.0314C110.159 23.4084 110.159 23.4084 106.696 22.6614C96.0329 20.4202 86.7285 23.3405 78.3748 31.6942C73.2811 36.7879 70.4966 41.4061 69.0025 47.2469C68.2554 50.3031 67.7121 50.9823 65.335 52.3406C56.5739 57.2305 48.2202 73.3266 48.2202 85.2118V89.0151L41.9041 88.8793C35.7916 88.8114 35.52 88.8793 29.068 92.0034C17.1148 97.7763 9.37238 103.753 6.452 109.526C4.21078 113.872 3.19204 120.188 4.00703 123.924C4.95785 127.863 4.88994 128.542 3.80329 128.542C2.37706 128.542 0 131.802 0 133.772C0 134.655 0.882901 138.322 1.96955 141.989C6.24825 156.455 12.0211 184.844 18.6768 223.828C30.4263 293.238 32.8712 306.957 39.3232 339.489C42.3115 354.498 46.1827 372.699 47.8806 379.898C49.5785 387.165 51.7518 396.266 52.6347 400.205C56.9134 418.61 66.6933 451.753 68.7308 454.674C72.9416 460.718 93.9955 467.238 120.89 470.838C141.129 473.486 159.806 474.437 187.108 474.03C211.49 473.622 222.492 472.875 240.082 470.43C268.811 466.491 288.235 459.835 291.562 452.84C292.853 450.123 295.977 439.868 299.78 426.013C311.734 382.072 321.785 331.542 333.127 258.261C342.499 197.816 348.408 165.013 353.298 146.404C357.237 131.327 357.033 129.153 351.6 128.067C350.174 127.795 349.834 127.388 350.174 126.573C350.445 125.961 350.785 122.566 350.989 119.034C351.193 113.736 350.989 111.903 349.902 108.643C347.186 100.9 339.647 93.2259 330.614 88.9472C326.811 87.1135 325.996 86.4343 325.588 84.7364C324.773 81.001 321.174 74.2095 317.167 68.912C309.56 58.7247 301.614 51.8652 297.335 51.7972C296.656 51.7972 294.958 50.1673 293.532 48.1977C290.476 44.1228 286.876 40.7949 283.684 39.1649C277.979 36.1766 269.558 35.3616 262.63 37.1953C260.457 37.7387 258.284 38.2141 257.808 38.2141C257.265 38.2141 256.043 36.5162 255.024 34.4787C251.424 27.0759 243.003 19.741 234.377 16.4131C229.623 14.5794 213.867 13.4927 205.581 14.4436C199.061 15.1906 191.047 18.7223 188.67 21.9822C187.855 23.0689 186.972 23.9518 186.768 23.9518C186.497 23.9518 182.082 19.741 176.853 14.5115C165.171 2.89788 162.455 1.33581 153.218 1.06415C147.717 0.8604 146.494 1.06414 142.284 2.82995ZM160.825 11.7948C164.017 13.3569 182.626 32.3733 185.206 36.7199C188.331 42.0174 188.195 42.3569 181.743 46.6356C173.932 51.8652 170.061 57.0268 168.771 64.1579C168.499 65.5842 167.956 66.9425 167.48 67.282C166.462 68.0291 150.977 71.4928 148.6 71.4928C147.038 71.4928 146.426 70.8137 144.389 66.8746C139.055 56.9612 130.141 49.4557 119.464 45.8886C116.34 44.8698 113.487 43.7153 113.216 43.3078C112.944 42.9682 112.808 40.7949 113.012 38.6216C113.555 31.6942 116.611 28.5021 131.757 19.0618C139.635 14.1719 146.291 10.7761 149.415 10.1649C152.267 9.55362 157.768 10.3686 160.825 11.7948ZM220.455 21.5747C236.551 23.2047 242.935 26.8722 248.232 37.3991C251.153 43.1719 252.239 56.5513 249.794 56.5513C247.485 56.5513 236.279 51.2539 233.291 48.809C228.672 44.9378 221.881 40.1836 217.127 37.5349C212.169 34.7504 205.785 34.0712 201.031 35.837C195.597 37.8066 195.665 37.8066 194.918 35.837C194.511 34.8183 193.56 33.0525 192.813 31.9658L191.387 29.9963L193.288 27.8909C195.53 25.5138 201.37 21.5747 203.408 21.0314C205.921 20.4201 210.811 20.556 220.455 21.5747ZM103.232 31.3546C104.522 31.7621 104.862 32.2375 104.726 33.5279C104.59 34.4108 104.455 37.1274 104.387 39.5045L104.251 43.8511L100.447 44.734C98.3421 45.2094 94.6067 46.4319 92.0938 47.4506C88.0189 49.0806 87.068 49.2164 82.4498 48.741C77.6278 48.3335 77.424 48.1977 77.8315 46.8394C79.4615 41.6099 86.1172 33.6637 90.4638 31.7621C92.773 30.7433 100.244 30.5396 103.232 31.3546ZM212.237 43.7153C213.731 44.5303 217.059 46.9073 219.708 49.0806C227.11 55.1251 233.019 58.9284 237.026 60.2188C243.003 62.1884 249.455 65.3125 251.492 67.282C254.141 69.7949 255.975 73.5303 257.876 80.3219C260.525 90.0338 259.846 95.3992 255.363 99.8816C252.239 103.006 248.776 104.636 239.471 107.217C234.921 108.439 228.265 110.409 224.53 111.495C217.331 113.736 212.169 114.144 207.551 112.786C205.513 112.174 203.612 110.68 200.352 107.217C197.907 104.568 191.998 98.6592 187.244 93.973C181.471 88.4039 177.939 84.3289 176.785 82.0877C173.661 75.9074 174 67.2141 177.736 60.7621C179.026 58.453 181.335 56.5513 189.213 51.3897C203.204 42.0853 206.939 40.8628 212.237 43.7153ZM276.825 44.3265C279.406 45.3452 284.092 49.1485 283.413 49.7598C283.141 50.0314 280.832 50.5748 278.319 51.0502C275.806 51.4577 271.052 52.7481 267.792 53.8347C264.532 54.9893 261.272 56.0759 260.661 56.2797C259.574 56.6872 259.438 56.2118 259.438 51.9331V47.1111L262.359 46.364C263.921 45.9565 266.57 45.2094 268.267 44.6661C272.139 43.5794 274.448 43.4436 276.825 44.3265ZM117.63 53.4951C126.935 56.7551 134.745 63.3429 138.616 71.1532C141.74 77.5373 141.333 81.3406 136.239 92.4788C126.391 114.144 116.272 125.282 107.375 124.195C99.6325 123.245 93.1126 123.041 89.7847 123.652C86.2531 124.263 86.0493 124.263 82.5177 121.818C77.0844 118.151 64.8596 107.217 61.8034 103.345C55.9626 95.9425 55.4872 86.8418 60.4451 74.6849C64.1125 65.5842 67.3046 61.7129 73.4849 58.8605C77.2203 57.1626 78.6465 56.8909 84.9627 56.823C91.3467 56.6872 92.5013 56.4834 95.8292 54.7855C103.979 50.6427 108.665 50.371 117.63 53.4951ZM292.785 58.5888C298.218 60.2188 301.886 63.8863 309.356 74.8886C316.488 85.3476 319.476 91.7996 319.476 96.6217C319.544 102.938 314.926 110.341 308.745 113.94C305.825 115.57 280.221 124.467 278.251 124.467C277.64 124.467 276.485 123.245 275.67 121.615C273.904 118.219 268.471 112.378 264.057 109.05C262.291 107.76 260.797 106.469 260.797 106.198C260.797 105.926 261.883 104.5 263.174 103.006C267.181 98.5233 268.471 95.1275 268.403 89.2189C268.335 82.9027 266.23 74.549 263.445 69.1837C260.933 64.3617 260.932 64.4296 268.811 61.3734C280.356 56.9589 285.586 56.3476 292.785 58.5888ZM168.499 79.7106C168.771 81.4765 169.314 83.5139 169.722 84.261C170.401 85.5514 170.197 85.6193 163.473 85.5514C157.768 85.5514 155.663 85.891 151.52 87.3172C148.736 88.3359 146.291 88.9472 146.155 88.8114C145.951 88.6755 146.223 86.5701 146.698 84.1931L147.513 79.8465L156.75 78.1486C161.843 77.1977 166.53 76.4507 167.073 76.5186C167.752 76.5865 168.227 77.6732 168.499 79.7106ZM174.815 94.4484C182.286 97.8441 192.541 108.099 196.888 116.589C201.846 126.233 201.167 132.957 194.443 143.008L190.504 148.781L186.089 149.188C179.977 149.732 165.103 149.664 149.822 148.917L136.986 148.374L130.602 141.989C123.403 134.926 122.248 133.16 122.248 129.425C122.248 127.32 122.86 126.029 125.576 122.701C127.41 120.46 131.485 114.959 134.677 110.612C142.419 99.8816 145.272 97.5046 155.188 93.7692C160.01 92.0034 170.129 92.343 174.815 94.4484ZM331.225 98.795C339.036 103.277 342.16 107.964 342.771 116.453C343.179 121.683 341.888 127.591 340.054 129.085C338.492 130.444 287.895 140.088 282.53 140.088C280.698 140.088 280.696 140.02 280.561 135.824C280.56 135.819 280.56 135.814 280.56 135.809L280.492 131.598L292.445 127.659C298.965 125.554 306.572 122.701 309.289 121.411C319.204 116.725 324.57 109.933 326.947 99.1346C327.49 96.8933 327.897 96.8933 331.225 98.795ZM47.5411 99.6779C49.9181 100.9 51.5481 102.395 53.246 105.043C55.5551 108.439 60.1734 112.921 72.5341 123.72C75.1828 126.097 77.424 128.338 77.424 128.814C77.424 129.221 76.3374 130.444 75.047 131.462C73.7566 132.481 71.3795 135.062 69.8174 137.167L66.965 140.903L62.4825 140.495C51.5481 139.341 17.5223 131.87 15.5527 130.104C13.8548 128.678 12.0211 121.343 12.5644 118.491C13.2436 114.891 15.9602 109.933 18.2693 107.964C21.5972 105.179 28.5246 101.24 32.9392 99.542C38.5083 97.5046 43.3303 97.5046 47.5411 99.6779ZM255.092 111.971C261.68 114.687 269.354 122.837 271.731 129.629C272.682 132.21 273.021 134.79 272.886 137.575L272.682 141.718L264.192 142.94C244.021 145.725 201.71 149.189 200.623 148.034C200.352 147.83 201.642 144.638 203.476 140.971L206.804 134.315V127.32L206.736 120.392H211.897C217.195 120.392 223.103 119.034 240.762 113.669C250.881 110.544 251.56 110.477 255.092 111.971ZM109.005 132.277C111.789 133.636 115.185 136.284 119.668 140.631C123.335 144.163 126.188 147.287 125.984 147.491C125.305 148.645 78.239 143.891 76.8807 142.533C76.2015 141.786 81.2952 135.877 84.1477 133.975C89.9884 130.308 91.4826 129.832 98.4779 130.104C103.911 130.308 105.541 130.647 109.005 132.277ZM346.303 145.114C341.209 162.364 336.523 188.104 323.279 272.184C322.125 279.655 320.427 290.046 319.544 295.275C315.333 320.065 312.956 333.376 311.462 341.458C310.511 346.28 309.289 352.868 308.677 356.06C302.497 388.32 288.099 443.807 284.703 448.425C283.005 450.667 277.436 453.383 270.033 455.557C263.038 457.526 252.715 459.7 246.942 460.379L242.935 460.854L243.342 458.205C243.733 455.99 246.5 434.019 250.803 399.849C250.803 399.843 250.804 399.838 250.805 399.832C250.986 398.393 251.17 396.933 251.356 395.451C254.209 372.36 257.537 344.379 261.815 306.481C264.192 285.02 267.249 258.125 268.539 246.716C269.829 235.306 272.003 215.882 273.361 203.589C274.651 191.228 276.281 176.898 276.825 171.669C277.436 166.439 278.115 159.919 278.387 157.203C278.862 152.041 279.541 150.954 282.326 150.954C286.469 150.954 326.607 143.348 339.579 140.156C342.364 139.409 345.488 138.865 346.438 138.797L348.204 138.729L346.303 145.114ZM37.0141 146.54C41.4966 147.559 51.2085 149.324 58.6113 150.615C66.0821 151.837 72.1945 152.992 72.2624 153.128C72.3303 153.263 74.2999 168.612 76.6769 187.289C78.9861 205.966 83.1968 239.109 86.1172 260.978C90.8713 297.245 91.2788 301.592 91.143 310.896C90.8713 329.573 92.5692 342.001 97.4592 356.535C98.8175 360.61 100.176 365.976 100.515 368.624C101.059 373.107 103.436 388.32 110.363 432.601C112.061 443.128 113.691 453.044 114.099 454.674C114.438 456.304 114.778 458.409 114.778 459.36V461.126L107.511 459.835C98.7496 458.273 93.8596 457.119 86.5926 454.742C79.054 452.297 76.2015 450.735 74.7074 448.222C71.6512 443.264 63.4334 413.381 54.061 373.311C49.0352 351.849 34.705 274.697 27.5059 230.755C21.9368 196.73 14.9415 162.364 10.5269 146.947C9.57613 143.755 8.82905 140.835 8.82905 140.427C8.82905 139.952 12.6323 140.631 18.8806 142.261C24.3818 143.687 32.5317 145.589 37.0141 146.54ZM275.059 154.622C275.059 157.27 268.132 221.723 264.192 255.884C262.63 268.924 260.661 286.378 259.71 294.596C255.839 329.437 251.832 363.87 250.609 373.379L247.893 395.791C246.399 408.423 241.78 444.894 240.286 455.421C239.607 460.514 239.267 461.397 238.113 461.669C235.939 462.144 216.923 464.046 214.478 464.046H212.373L212.78 452.704C213.052 446.388 213.595 432.601 214.003 421.938C214.342 411.276 214.818 401.632 215.021 400.545C215.225 398.983 216.38 397.692 219.911 394.976C225.82 390.493 230.982 384.992 233.019 381.121C234.174 378.88 234.581 376.978 234.649 373.718C234.649 368.828 234.649 368.828 222.492 345.193L217.466 335.346L218.146 319.385L218.825 303.425L222.085 293.577C223.918 288.144 227.382 277.753 229.895 270.486C234.106 258.329 234.445 256.903 234.174 252.692C233.97 248.957 233.562 247.599 231.865 245.221C230.099 242.641 225.005 238.498 222.696 237.751C222.085 237.547 222.22 227.767 223.171 197.816L224.462 158.085L234.309 157.203C241.644 156.591 269.15 153.263 274.584 152.381C274.855 152.381 275.059 153.331 275.059 154.622ZM90.6676 155.64C96.6442 156.388 107.986 157.474 115.864 158.153L130.262 159.376L130.67 164.537C131.077 169.292 133.183 206.17 134.337 227.292C134.609 232.453 134.677 236.868 134.473 237.139C134.27 237.411 131.757 239.245 128.904 241.214C126.052 243.184 121.026 247.599 117.698 250.994C108.054 261.114 101.67 271.641 96.1688 286.922C93.5201 294.325 93.7917 295.004 91.3467 276.599C87.2039 245.561 76.0657 156.795 76.0657 154.893C76.0657 153.807 76.4053 153.603 77.9673 153.943C78.9861 154.146 84.691 154.961 90.6676 155.64ZM221.066 165.013C220.862 168.68 220.455 180.837 220.047 192.043C218.689 232.929 218.553 235.849 217.874 235.849C217.466 235.849 213.188 234.491 208.23 232.861C183.169 224.439 163.813 224.371 144.049 232.725L138.616 235.034L138.209 232.861C138.073 231.706 137.258 219.617 136.511 205.966C135.764 192.315 134.813 176.491 134.405 170.786C134.066 165.081 133.93 160.055 134.202 159.648C134.473 159.172 136.103 159.104 138.684 159.376C144.049 159.987 195.326 159.851 204.766 159.172C208.909 158.9 214.274 158.561 216.787 158.561L221.338 158.425L221.066 165.013ZM182.014 235.17C184.799 235.577 189.485 236.46 192.338 237.207C202.389 239.788 222.356 248.346 223.103 250.315C223.307 250.791 219.504 262.268 214.682 275.919C205.581 301.659 204.902 303.018 201.574 302.135C200.691 301.931 195.733 298.264 190.572 293.917C179.094 284.409 175.902 282.711 169.925 282.711C164.356 282.711 159.534 284.952 155.323 289.435C143.234 302.339 141.197 332.697 151.384 348.386C156.41 356.196 164.288 360.475 172.914 359.999C177.124 359.795 178.211 359.456 181.403 357.282C183.441 355.924 188.874 351.102 193.492 346.62C200.691 339.624 202.253 338.402 204.087 338.402C205.309 338.402 206.736 338.945 207.279 339.557C207.89 340.236 212.101 348.182 216.583 357.282L224.869 373.786L223.443 376.095C221.745 378.88 214.478 385.739 208.909 389.814C190.164 403.669 165.035 405.231 141.944 394.025C127.75 387.165 118.445 378.201 110.227 363.531C99.4287 344.378 97.6629 311.711 105.949 287.669C114.914 261.861 137.19 240.671 160.213 236.189C169.246 234.423 174.408 234.219 182.014 235.17ZM173.185 297.381C174.747 297.992 180.452 301.727 185.953 305.667C191.455 309.538 197.295 313.477 198.925 314.36C203.883 317.076 208.977 316.397 213.052 312.458L215.225 310.353L214.818 321.151C214.614 327.06 214.274 332.086 214.138 332.289C214.003 332.425 213.324 332.222 212.712 331.746C210.743 330.32 208.23 329.437 205.309 329.097C200.691 328.486 196.412 330.999 185.818 340.711C175.291 350.287 173.117 351.442 168.363 350.015C164.696 348.929 160.078 344.582 158.38 340.575C156.41 336.025 155.323 326.992 155.867 319.861C156.953 305.802 162.047 297.109 169.586 296.362C170.061 296.362 171.691 296.77 173.185 297.381ZM108.869 377.929C115.932 387.913 129.787 399.254 140.993 404.009C144.049 405.299 145.476 406.318 145.679 407.269C145.815 408.084 146.63 416.641 147.377 426.353C148.124 436.065 149.075 447.339 149.415 451.482C149.822 455.557 150.094 460.107 150.094 461.465V464.046H146.019C140.518 464.046 121.569 462.144 119.803 461.397C118.513 460.854 118.038 458.477 114.234 435.046C107.375 393.278 104.59 375.144 104.59 373.107C104.59 371.884 104.862 372.156 108.869 377.929ZM211.558 406.454C211.354 409.578 210.879 419.29 210.539 428.051C210.199 436.812 209.656 448.629 209.452 454.266L208.977 464.522L202.457 464.997C194.171 465.54 159.398 465.54 156.138 464.997L153.626 464.589L153.218 458.341C152.946 454.945 151.996 443.264 151.045 432.465C150.162 421.599 149.415 411.343 149.415 409.578V406.454L153.558 407.676C160.96 409.917 167.141 410.596 177.736 410.257C189.281 409.849 196.005 408.219 204.97 403.601C207.822 402.175 210.607 400.952 211.082 400.884C211.694 400.884 211.829 402.243 211.558 406.454Z" fill="black"/>
<path d="M182.014 235.17C184.799 235.577 189.485 236.46 192.338 237.207C202.389 239.788 222.356 248.346 223.103 250.315C223.307 250.791 219.504 262.268 214.682 275.919C205.581 301.659 204.902 303.018 201.574 302.135C200.691 301.931 195.733 298.264 190.572 293.917C179.094 284.409 175.902 282.711 169.925 282.711C164.356 282.711 159.534 284.952 155.323 289.435C143.234 302.339 141.197 332.697 151.384 348.386C156.41 356.196 164.288 360.475 172.914 359.999C177.124 359.795 178.211 359.456 181.403 357.282C183.441 355.924 188.874 351.102 193.492 346.62C200.691 339.624 202.253 338.402 204.087 338.402C205.309 338.402 206.736 338.945 207.279 339.557C207.89 340.236 212.101 348.182 216.583 357.282L224.869 373.786L223.443 376.095C221.745 378.88 214.478 385.739 208.909 389.814C190.164 403.669 165.035 405.231 141.944 394.025C127.75 387.165 118.445 378.201 110.227 363.531C99.4287 344.378 97.6629 311.711 105.949 287.669C114.914 261.861 137.19 240.671 160.213 236.189C169.246 234.423 174.408 234.219 182.014 235.17Z" fill="white"/>
<path d="M173.185 297.381C174.747 297.992 180.452 301.727 185.953 305.667C191.455 309.538 197.295 313.477 198.925 314.36C203.883 317.076 208.977 316.397 213.052 312.458L215.225 310.353L214.818 321.151C214.614 327.06 214.274 332.086 214.138 332.289C214.003 332.425 213.324 332.222 212.712 331.746C210.743 330.32 208.23 329.437 205.309 329.097C200.691 328.486 196.412 330.999 185.818 340.711C175.291 350.287 173.117 351.442 168.363 350.015C164.696 348.929 160.078 344.582 158.38 340.575C156.41 336.025 155.323 326.992 155.867 319.861C156.953 305.802 162.047 297.109 169.586 296.362C170.061 296.362 171.691 296.77 173.185 297.381Z" fill="#E50914"/>
<path d="M331.225 98.795C339.036 103.277 342.16 107.964 342.771 116.453C343.179 121.683 341.888 127.591 340.054 129.085C338.492 130.444 287.895 140.088 282.53 140.088C280.698 140.088 280.696 140.02 280.561 135.824L280.56 135.809L280.492 131.598L292.445 127.659C298.965 125.554 306.572 122.701 309.289 121.411C319.204 116.725 324.57 109.933 326.947 99.1346C327.49 96.8933 327.897 96.8933 331.225 98.795Z" fill="#FFDC66"/>
<path d="M255.092 111.971C261.68 114.687 269.354 122.837 271.731 129.629C272.682 132.21 273.021 134.79 272.886 137.575L272.682 141.718L264.192 142.94C244.021 145.725 201.71 149.189 200.623 148.034C200.352 147.83 201.642 144.638 203.476 140.971L206.804 134.315V127.32L206.736 120.392H211.897C217.195 120.392 223.103 119.034 240.762 113.669C250.881 110.544 251.56 110.477 255.092 111.971Z" fill="#FFDD64"/>
<path d="M212.237 43.7153C213.731 44.5303 217.059 46.9073 219.708 49.0806C227.11 55.1251 233.019 58.9284 237.026 60.2188C243.003 62.1884 249.455 65.3125 251.492 67.282C254.141 69.7949 255.975 73.5303 257.876 80.3219C260.525 90.0338 259.846 95.3992 255.363 99.8816C252.239 103.006 248.776 104.636 239.471 107.217C234.921 108.439 228.265 110.409 224.53 111.495C217.331 113.736 212.169 114.144 207.551 112.786C205.513 112.174 203.612 110.68 200.352 107.217C197.907 104.568 191.998 98.6592 187.244 93.973C181.471 88.4039 177.939 84.3289 176.785 82.0877C173.661 75.9074 174 67.2141 177.736 60.7621C179.026 58.453 181.335 56.5513 189.213 51.3897C203.204 42.0853 206.939 40.8628 212.237 43.7153Z" fill="#FFDD66"/>
<path d="M292.785 58.5888C298.218 60.2188 301.886 63.8863 309.356 74.8886C316.488 85.3476 319.476 91.7996 319.476 96.6217C319.544 102.938 314.926 110.341 308.745 113.94C305.825 115.57 280.221 124.467 278.251 124.467C277.64 124.467 276.485 123.245 275.67 121.615C273.904 118.219 268.471 112.378 264.057 109.05C262.291 107.76 260.797 106.469 260.797 106.198C260.797 105.926 261.883 104.5 263.174 103.006C267.181 98.5233 268.471 95.1275 268.403 89.2189C268.335 82.9027 266.23 74.549 263.445 69.1837C260.933 64.3617 260.932 64.4296 268.811 61.3734C280.356 56.9589 285.586 56.3476 292.785 58.5888Z" fill="#FFDD64"/>
<path d="M174.815 94.4484C182.286 97.8441 192.541 108.099 196.888 116.589C201.846 126.233 201.167 132.957 194.443 143.008L190.504 148.781L186.089 149.188C179.977 149.732 165.103 149.664 149.822 148.917L136.986 148.374L130.602 141.989C123.403 134.926 122.248 133.16 122.248 129.425C122.248 127.32 122.86 126.029 125.576 122.701C127.41 120.46 131.485 114.959 134.677 110.612C142.419 99.8816 145.272 97.5046 155.188 93.7692C160.01 92.0034 170.129 92.343 174.815 94.4484Z" fill="#FFDD64"/>
<path d="M117.63 53.4951C126.935 56.7551 134.745 63.3429 138.616 71.1532C141.74 77.5373 141.333 81.3406 136.239 92.4788C126.391 114.144 116.272 125.282 107.375 124.195C99.6325 123.245 93.1126 123.041 89.7847 123.652C86.2531 124.263 86.0493 124.263 82.5177 121.818C77.0844 118.151 64.8596 107.217 61.8034 103.345C55.9626 95.9425 55.4872 86.8418 60.4451 74.6849C64.1125 65.5842 67.3046 61.7129 73.4849 58.8605C77.2203 57.1626 78.6465 56.8909 84.9627 56.823C91.3467 56.6872 92.5013 56.4834 95.8292 54.7855C103.979 50.6427 108.665 50.371 117.63 53.4951Z" fill="#FFDC64"/>
<path d="M160.825 11.7948C164.017 13.3569 182.626 32.3733 185.206 36.7199C188.331 42.0174 188.195 42.3569 181.743 46.6356C173.932 51.8652 170.061 57.0268 168.771 64.1579C168.499 65.5842 167.956 66.9425 167.48 67.282C166.462 68.0291 150.977 71.4928 148.6 71.4928C147.038 71.4928 146.426 70.8137 144.389 66.8746C139.055 56.9612 130.141 49.4557 119.464 45.8886C116.34 44.8698 113.487 43.7153 113.216 43.3078C112.944 42.9682 112.808 40.7949 113.012 38.6216C113.555 31.6942 116.611 28.5021 131.757 19.0618C139.635 14.1719 146.291 10.7761 149.415 10.1649C152.267 9.55362 157.768 10.3686 160.825 11.7948Z" fill="#FFDC66"/>
<path d="M109.005 132.277C111.789 133.636 115.185 136.284 119.668 140.631C123.335 144.163 126.188 147.287 125.984 147.491C125.305 148.645 78.239 143.891 76.8807 142.533C76.2015 141.786 81.2952 135.877 84.1477 133.975C89.9884 130.308 91.4826 129.832 98.4779 130.104C103.911 130.308 105.541 130.647 109.005 132.277Z" fill="#FFDD67"/>
<path d="M47.5411 99.6779C49.9181 100.9 51.5481 102.395 53.246 105.043C55.5551 108.439 60.1734 112.921 72.5341 123.72C75.1828 126.097 77.424 128.338 77.424 128.814C77.424 129.221 76.3374 130.444 75.047 131.462C73.7566 132.481 71.3795 135.062 69.8174 137.167L66.965 140.903L62.4825 140.495C51.5481 139.341 17.5223 131.87 15.5527 130.104C13.8548 128.678 12.0211 121.343 12.5644 118.491C13.2436 114.891 15.9602 109.933 18.2693 107.964C21.5972 105.179 28.5246 101.24 32.9392 99.542C38.5083 97.5046 43.3303 97.5046 47.5411 99.6779Z" fill="#FFDC62"/>
<path d="M103.232 31.3546C104.522 31.7621 104.862 32.2375 104.726 33.5279C104.59 34.4108 104.455 37.1274 104.387 39.5045L104.251 43.8511L100.447 44.734C98.3421 45.2094 94.6067 46.4319 92.0938 47.4506C88.0189 49.0806 87.068 49.2164 82.4498 48.741C77.6278 48.3335 77.424 48.1977 77.8315 46.8394C79.4615 41.6099 86.1172 33.6637 90.4638 31.7621C92.773 30.7433 100.244 30.5396 103.232 31.3546Z" fill="#FFDD65"/>
<path d="M220.455 21.5747C236.551 23.2047 242.935 26.8722 248.232 37.3991C251.153 43.1719 252.239 56.5513 249.794 56.5513C247.485 56.5513 236.279 51.2539 233.291 48.809C228.672 44.9378 221.881 40.1836 217.127 37.5349C212.169 34.7504 205.785 34.0712 201.031 35.837C195.597 37.8066 195.665 37.8066 194.918 35.837C194.511 34.8183 193.56 33.0525 192.813 31.9658L191.387 29.9963L193.288 27.8909C195.53 25.5138 201.37 21.5747 203.408 21.0314C205.921 20.4201 210.811 20.556 220.455 21.5747Z" fill="#FFDD63"/>
<path d="M276.825 44.3265C279.406 45.3452 284.092 49.1485 283.413 49.7598C283.141 50.0314 280.832 50.5748 278.319 51.0502C275.806 51.4577 271.052 52.7481 267.792 53.8347C264.532 54.9893 261.272 56.0759 260.661 56.2797C259.574 56.6872 259.438 56.2118 259.438 51.9331V47.1111L262.359 46.364C263.921 45.9565 266.57 45.2094 268.267 44.6661C272.139 43.5794 274.448 43.4436 276.825 44.3265Z" fill="#FFDC65"/>
<path d="M168.499 79.7106C168.771 81.4765 169.314 83.5139 169.722 84.261C170.401 85.5514 170.197 85.6193 163.473 85.5514C157.768 85.5514 155.663 85.891 151.52 87.3172C148.736 88.3359 146.291 88.9472 146.155 88.8114C145.951 88.6755 146.223 86.5701 146.698 84.1931L147.513 79.8465L156.75 78.1486C161.843 77.1977 166.53 76.4507 167.073 76.5186C167.752 76.5865 168.227 77.6732 168.499 79.7106Z" fill="#FFDC66"/>
<path d="M346.303 145.114C341.209 162.364 336.523 188.104 323.279 272.184C322.125 279.655 320.427 290.046 319.544 295.275C315.333 320.065 312.956 333.376 311.462 341.458C310.511 346.28 309.289 352.868 308.677 356.06C302.497 388.32 288.099 443.807 284.703 448.425C283.005 450.667 277.436 453.383 270.033 455.557C263.038 457.526 252.715 459.7 246.942 460.379L242.935 460.854L243.342 458.205C243.733 455.99 246.5 434.019 250.803 399.849L250.805 399.832L251.356 395.451C254.209 372.36 257.537 344.379 261.815 306.481C264.192 285.02 267.249 258.125 268.539 246.716C269.829 235.306 272.003 215.882 273.361 203.589C274.651 191.228 276.281 176.898 276.825 171.669C277.436 166.439 278.115 159.919 278.387 157.203C278.862 152.041 279.541 150.954 282.326 150.954C286.469 150.954 326.607 143.348 339.579 140.156C342.364 139.409 345.488 138.865 346.438 138.797L348.204 138.729L346.303 145.114Z" fill="#E50914"/>
<path d="M221.066 165.013C220.862 168.68 220.455 180.837 220.047 192.043C218.689 232.929 218.553 235.849 217.874 235.849C217.466 235.849 213.188 234.491 208.23 232.861C183.169 224.439 163.813 224.371 144.049 232.725L138.616 235.034L138.209 232.861C138.073 231.706 137.258 219.617 136.511 205.966C135.764 192.315 134.813 176.491 134.405 170.786C134.066 165.081 133.93 160.055 134.202 159.648C134.473 159.172 136.103 159.104 138.684 159.376C144.049 159.987 195.326 159.851 204.766 159.172C208.909 158.9 214.274 158.561 216.787 158.561L221.338 158.425L221.066 165.013Z" fill="#E50914"/>
<path d="M211.558 406.454C211.354 409.578 210.879 419.29 210.539 428.051C210.199 436.812 209.656 448.629 209.452 454.266L208.977 464.522L202.457 464.997C194.171 465.54 159.398 465.54 156.138 464.997L153.626 464.589L153.218 458.341C152.946 454.945 151.996 443.264 151.045 432.465C150.162 421.599 149.415 411.343 149.415 409.578V406.454L153.558 407.676C160.96 409.917 167.141 410.596 177.736 410.257C189.281 409.849 196.005 408.219 204.97 403.601C207.822 402.175 210.607 400.952 211.082 400.884C211.694 400.884 211.829 402.243 211.558 406.454Z" fill="#E50914"/>
<path d="M37.0141 146.54C41.4966 147.559 51.2085 149.324 58.6113 150.615C66.0821 151.837 72.1945 152.992 72.2624 153.128C72.3303 153.263 74.2999 168.612 76.6769 187.289C78.9861 205.966 83.1968 239.109 86.1172 260.978C90.8713 297.245 91.2788 301.592 91.143 310.896C90.8713 329.573 92.5692 342.001 97.4592 356.535C98.8175 360.61 100.176 365.976 100.515 368.624C101.059 373.107 103.436 388.32 110.363 432.601C112.061 443.128 113.691 453.044 114.099 454.674C114.438 456.304 114.778 458.409 114.778 459.36V461.126L107.511 459.835C98.7496 458.273 93.8596 457.119 86.5926 454.742C79.054 452.297 76.2015 450.735 74.7074 448.222C71.6512 443.264 63.4334 413.381 54.061 373.311C49.0352 351.849 34.705 274.697 27.5059 230.755C21.9368 196.73 14.9415 162.364 10.5269 146.947C9.57613 143.755 8.82905 140.835 8.82905 140.427C8.82905 139.952 12.6323 140.631 18.8806 142.261C24.3818 143.687 32.5317 145.589 37.0141 146.54Z" fill="#E50914"/>
<path d="M90.6676 155.64C96.6442 156.388 107.986 157.474 115.864 158.153L130.262 159.376L130.67 164.537C131.077 169.292 133.183 206.17 134.337 227.292C134.609 232.453 134.677 236.868 134.473 237.139C134.27 237.411 131.757 239.245 128.904 241.214C126.052 243.184 121.026 247.599 117.698 250.994C108.054 261.114 101.67 271.641 96.1688 286.922C93.5201 294.325 93.7917 295.004 91.3467 276.599C87.2039 245.561 76.0657 156.795 76.0657 154.893C76.0657 153.807 76.4053 153.603 77.9673 153.943C78.9861 154.146 84.691 154.961 90.6676 155.64Z" fill="white"/>
<path d="M108.869 377.929C115.932 387.913 129.787 399.254 140.993 404.009C144.049 405.299 145.476 406.318 145.679 407.269C145.815 408.084 146.63 416.641 147.377 426.353C148.124 436.065 149.075 447.339 149.415 451.482C149.822 455.557 150.094 460.107 150.094 461.465V464.046H146.019C140.518 464.046 121.569 462.144 119.803 461.397C118.513 460.854 118.038 458.477 114.234 435.046C107.375 393.278 104.59 375.144 104.59 373.107C104.59 371.884 104.862 372.156 108.869 377.929Z" fill="white"/>
<path d="M275.059 154.622C275.059 157.27 268.132 221.723 264.192 255.884C262.63 268.924 260.661 286.378 259.71 294.596C255.839 329.437 251.832 363.87 250.609 373.379L247.893 395.791C246.399 408.423 241.78 444.894 240.286 455.421C239.607 460.514 239.267 461.397 238.113 461.669C235.939 462.144 216.923 464.046 214.478 464.046H212.373L212.78 452.704C213.052 446.388 213.595 432.601 214.003 421.938C214.342 411.276 214.818 401.632 215.021 400.545C215.225 398.983 216.38 397.692 219.911 394.976C225.82 390.493 230.982 384.992 233.019 381.121C234.174 378.88 234.581 376.978 234.649 373.718C234.649 368.828 234.649 368.828 222.492 345.193L217.466 335.346L218.146 319.385L218.825 303.425L222.085 293.577C223.918 288.144 227.382 277.753 229.895 270.486C234.106 258.329 234.445 256.903 234.174 252.692C233.97 248.957 233.562 247.599 231.865 245.221C230.099 242.641 225.005 238.498 222.696 237.751C222.085 237.547 222.22 227.767 223.171 197.816L224.462 158.085L234.309 157.203C241.644 156.591 269.15 153.263 274.584 152.381C274.855 152.381 275.059 153.331 275.059 154.622Z" fill="white"/>
<path d="M158.923 31.2188C157.157 31.8979 155.527 33.5958 155.527 34.8862C155.527 36.8558 157.565 37.5349 159.806 36.3804C161.708 35.4295 161.911 35.4295 164.017 37.5349C167.82 41.2703 170.74 39.0291 167.616 34.7504C165.171 31.4904 161.911 30.1321 158.923 31.2188ZM186.361 75.7715C184.867 77.0619 184.595 77.7411 185.003 79.1673C185.478 81.2048 187.855 81.7481 188.534 79.9823C188.806 79.439 189.485 78.9636 190.164 78.9636C191.319 78.9636 191.455 79.5069 191.319 83.7856C191.183 88.0643 191.319 88.7434 192.813 89.898C194.579 91.3242 197.635 91.5959 198.858 90.3734C200.148 89.083 199.808 88.2001 197.635 86.9776C195.665 85.891 195.598 85.6193 195.598 81.069C195.598 76.9261 195.394 76.179 194.103 75.2961C191.862 73.734 188.534 73.9378 186.361 75.7715ZM121.501 85.4835C121.026 86.0947 120.619 88.1322 120.551 90.1017C120.551 93.3617 120.619 93.5654 122.452 93.7692C124.014 93.9729 124.49 93.6334 125.305 91.5959C125.848 90.3055 126.323 88.4718 126.323 87.5889C126.323 84.6006 123.335 83.3102 121.501 85.4835ZM118.649 97.6404C116.951 99.3383 115.932 103.142 116.815 104.772C118.445 107.76 121.773 105.519 122.656 100.9C123.335 97.3008 120.89 95.3313 118.649 97.6404ZM149.686 99.2025C147.106 100.9 146.494 107.013 148.804 108.235C150.841 109.254 152.131 107.828 152.879 103.685C153.422 100.9 153.354 100.221 152.335 99.4741C151.045 98.5233 150.705 98.5233 149.686 99.2025ZM146.359 113.193C145 115.299 145.272 119.645 146.834 120.664C148.736 121.818 150.773 119.441 150.773 115.978C150.773 111.631 148.396 110.069 146.359 113.193ZM185.546 129.357C184.324 130.58 184.527 133.228 186.089 135.673C187.719 138.322 189.078 139.001 190.911 138.05C192.473 137.167 192.541 136.081 191.251 133.092C189.621 129.085 187.312 127.591 185.546 129.357ZM252.986 135.537C250.202 137.099 249.115 139.544 250.541 140.971C251.085 141.514 252.104 141.31 254.345 140.088L257.333 138.458L258.963 139.952C260.797 141.65 262.359 141.854 263.445 140.495C264.6 139.137 263.378 137.032 260.593 135.334C257.808 133.568 256.314 133.636 252.986 135.537Z" fill="black"/>
</svg>
