<svg width="844" height="487" viewBox="0 0 844 487" fill="none" xmlns="http://www.w3.org/2000/svg">
<path d="M422.01 367.74C189.43 367.74 0.81001 421.08 0.0100098 486.96H844.01C843.21 421.08 654.59 367.73 422.01 367.73V367.74Z" fill="#D6D6E3"/>
<g opacity="0.1">
<path d="M352 469.57C396.183 469.57 432 459.622 432 447.35C432 435.078 396.183 425.13 352 425.13C307.817 425.13 272 435.078 272 447.35C272 459.622 307.817 469.57 352 469.57Z" fill="black"/>
</g>
<g opacity="0.1">
<path d="M525 429.57C569.183 429.57 605 419.622 605 407.35C605 395.078 569.183 385.13 525 385.13C480.817 385.13 445 395.078 445 407.35C445 419.622 480.817 429.57 525 429.57Z" fill="black"/>
</g>
<g opacity="0.1">
<path d="M352 467.35C391.765 467.35 424 458.396 424 447.35C424 436.304 391.765 427.35 352 427.35C312.235 427.35 280 436.304 280 447.35C280 458.396 312.235 467.35 352 467.35Z" fill="black"/>
</g>
<g opacity="0.1">
<path d="M525 427.35C564.765 427.35 597 418.396 597 407.35C597 396.304 564.765 387.35 525 387.35C485.235 387.35 453 396.304 453 407.35C453 418.396 485.235 427.35 525 427.35Z" fill="black"/>
</g>
<path d="M138 34.96C141.866 34.96 145 31.826 145 27.96C145 24.094 141.866 20.96 138 20.96C134.134 20.96 131 24.094 131 27.96C131 31.826 134.134 34.96 138 34.96Z" fill="#F2F2F2"/>
<path d="M740 308.96C743.866 308.96 747 305.826 747 301.96C747 298.094 743.866 294.96 740 294.96C736.134 294.96 733 298.094 733 301.96C733 305.826 736.134 308.96 740 308.96Z" fill="#F2F2F2"/>
<path d="M410 83.96C413.866 83.96 417 80.826 417 76.96C417 73.094 413.866 69.96 410 69.96C406.134 69.96 403 73.094 403 76.96C403 80.826 406.134 83.96 410 83.96Z" fill="#F2F2F2"/>
<path d="M757 38.96C759.209 38.96 761 37.1691 761 34.96C761 32.7508 759.209 30.96 757 30.96C754.791 30.96 753 32.7508 753 34.96C753 37.1691 754.791 38.96 757 38.96Z" fill="black"/>
<path d="M154 238.96C156.209 238.96 158 237.169 158 234.96C158 232.751 156.209 230.96 154 230.96C151.791 230.96 150 232.751 150 234.96C150 237.169 151.791 238.96 154 238.96Z" fill="black"/>
<path d="M94 319.28H92.18V317.46H91.82V319.28H90V319.64H91.82V321.46H92.18V319.64H94V319.28Z" fill="#F2F2F2"/>
<path d="M679 171.28H677.18V169.46H676.82V171.28H675V171.64H676.82V173.46H677.18V171.64H679V171.28Z" fill="#F2F2F2"/>
<path d="M830 141.28H828.18V139.46H827.82V141.28H826V141.64H827.82V143.46H828.18V141.64H830V141.28Z" fill="#F2F2F2"/>
<path d="M505 221.28H503.18V219.46H502.82V221.28H501V221.64H502.82V223.46H503.18V221.64H505V221.28Z" fill="#F2F2F2"/>
<path d="M786 231.28H784.18V229.46H783.82V231.28H782V231.64H783.82V233.46H784.18V231.64H786V231.28Z" fill="#F2F2F2"/>
<path d="M447 274.28H445.18V272.46H444.82V274.28H443V274.64H444.82V276.46H445.18V274.64H447V274.28Z" fill="#F2F2F2"/>
<path d="M575 276.28H573.18V274.46H572.82V276.28H571V276.64H572.82V278.46H573.18V276.64H575V276.28Z" fill="#F2F2F2"/>
<path d="M96 106.28H94.18V104.46H93.82V106.28H92V106.64H93.82V108.46H94.18V106.64H96V106.28Z" fill="#F2F2F2"/>
<path d="M611.75 123L585.3 183.94L590.47 192.56L588.75 195.44L600.82 201.76V198.31L605.42 197.16L624.97 161.52L611.75 123Z" fill="#D6D6E3"/>
<path d="M591.05 194.87C591.05 194.87 571.51 225.33 593.35 229.93C615.19 234.53 597.38 197.73 597.38 197.73L591.05 194.87Z" fill="#D6D6E3"/>
<path d="M619.22 181.07L612.32 203.49L609.45 232.23L604.27 242.58L610.02 289.15L619.22 298.35L623.25 344.34V365.04L634.17 384.01L620.1 403.97C619.436 404.908 619.039 406.008 618.951 407.154C618.863 408.299 619.086 409.448 619.598 410.476C620.11 411.505 620.891 412.376 621.858 412.996C622.825 413.617 623.942 413.964 625.09 414C628.19 414.08 632.29 413.2 637.62 410.45C654.29 401.82 653.72 393.77 653.72 393.77C653.72 393.77 664.06 393.77 664.64 385.73C665.22 377.69 658.31 320.19 658.31 320.19L651.99 295.47V228.21H654.29L655.44 285.7L660.61 306.97L661.19 316.17L668.66 408.15C668.66 408.15 702.01 417.35 703.73 409.88C705.45 402.41 691.08 397.8 691.08 397.8L699.71 381.13V348.93L696.83 342.03L700.28 304.01V286.27L704.88 280.52V234.53L699.13 216.71L697.41 201.76L688.21 178.76C688.21 178.76 646.24 164.97 619.22 181.06V181.07Z" fill="#E1ECFF"/>
<path d="M693.96 51.1399C693.964 58.0583 692.326 64.8788 689.179 71.0403C686.033 77.2018 681.468 82.5282 675.862 86.5814C670.255 90.6345 663.766 93.2985 656.928 94.3542C650.091 95.4099 643.101 94.8272 636.533 92.6539C629.964 90.4806 624.006 86.779 619.148 81.8534C614.289 76.9278 610.67 70.9192 608.587 64.3217C606.505 57.7243 606.018 50.7266 607.168 43.9044C608.317 37.0822 611.07 30.6304 615.2 25.0799C620.679 17.7055 628.343 12.2459 637.103 9.47715C645.863 6.70842 655.272 6.77149 663.994 9.65738C672.716 12.5433 680.307 18.1052 685.686 25.5523C691.066 32.9995 693.961 41.9529 693.96 51.1399Z" fill="#1C3177"/>
<path d="M701.2 36.52L685.33 51.14C658.55 -18.38 615.94 24.33 615.21 25.07C619.614 19.1501 625.445 14.4415 632.159 11.3832C638.874 8.32497 646.253 7.01657 653.61 7.58002C668.56 8.73002 694.18 23.26 701.19 36.52H701.2Z" fill="#E1ECFF"/>
<path d="M682.9 22.11L688.9 42.91C688.9 42.91 676.46 80.16 618.81 81.46L616.92 86.79L610.6 88.51L607.72 100.58L615.77 177.04C615.77 177.04 612.32 184.52 618.07 183.94C618.07 183.94 656.01 171.3 688.78 182.79C688.78 182.79 695.68 185.67 693.96 179.35C693.96 179.35 716.96 164.97 715.23 150.03C713.5 135.09 716.95 65.52 716.95 65.52C716.95 65.52 720.4 45.4 710.05 40.8C710.05 40.8 694.85 19.52 682.91 22.11H682.9Z" fill="#E1ECFF"/>
<path d="M670.3 167.38C670.3 167.38 634.28 170.99 644.25 190.97C654.22 210.95 671.98 174.12 671.98 174.12L670.3 167.38Z" fill="#D6D6E3"/>
<path d="M688.78 78.16C688.78 78.16 682.46 85.63 684.76 97.7C687.06 109.77 695.68 136.8 695.68 136.8L665.21 164.96L674.41 177.61L715.8 156.35L725 150.6C722.71 127.347 717.016 104.557 708.1 82.96L706.6 79.31C706.6 79.31 695.68 74.71 688.78 78.16Z" fill="#D6D6E3"/>
<path d="M481 90.28H479.18V88.46H478.82V90.28H477V90.64H478.82V92.46H479.18V90.64H481V90.28Z" fill="#F2F2F2"/>
<path d="M645 34.28H643.18V32.46H642.82V34.28H641V34.64H642.82V36.46H643.18V34.64H645V34.28Z" fill="#F2F2F2"/>
<path d="M627 51.28H625.18V49.46H624.82V51.28H623V51.64H624.82V53.46H625.18V51.64H627V51.28Z" fill="#F2F2F2"/>
<path d="M556 8.95996C558.209 8.95996 560 7.1691 560 4.95996C560 2.75082 558.209 0.959961 556 0.959961C553.791 0.959961 552 2.75082 552 4.95996C552 7.1691 553.791 8.95996 556 8.95996Z" fill="#F2F2F2"/>
<path d="M239 255.96C242.866 255.96 246 252.826 246 248.96C246 245.094 242.866 241.96 239 241.96C235.134 241.96 232 245.094 232 248.96C232 252.826 235.134 255.96 239 255.96Z" fill="#F2F2F2"/>
<path d="M334 104.64H332.18V106.46H331.82V104.64H330V104.28H331.82V102.46H332.18V104.28H334V104.64Z" fill="#F2F2F2"/>
<path d="M276 51.64H274.18V53.46H273.82V51.64H272V51.28H273.82V49.46H274.18V51.28H276V51.64Z" fill="#F2F2F2"/>
<path d="M310 235.64H308.18V237.46H307.82V235.64H306V235.28H307.82V233.46H308.18V235.28H310V235.64Z" fill="#F2F2F2"/>
</svg>
